<?xml version="1.0" encoding="UTF-8"?>
<svg xmlns="http://www.w3.org/2000/svg" id="Outline" viewBox="0 0 512 512" width="512" height="512"><path fill="#5866eb" d="M464,360V120a40.068,40.068,0,0,0-32-39.195V40a24.028,24.028,0,0,0-24-24H104A24.028,24.028,0,0,0,80,40V80.805A40.068,40.068,0,0,0,48,120V360a40.045,40.045,0,0,0,40,40H205.754l-12,48H168a40.045,40.045,0,0,0-40,40,8,8,0,0,0,8,8H376a8,8,0,0,0,8-8,40.045,40.045,0,0,0-40-40H318.246l-12-48H424A40.045,40.045,0,0,0,464,360ZM96,40a8.009,8.009,0,0,1,8-8H408a8.009,8.009,0,0,1,8,8V80H96Zm0,56H416V280a8.009,8.009,0,0,1-8,8H104a8.009,8.009,0,0,1-8-8ZM64,120A24.039,24.039,0,0,1,80,97.376V280a24.028,24.028,0,0,0,24,24H408a24.028,24.028,0,0,0,24-24V97.376A24.039,24.039,0,0,1,448,120V320H64ZM344,464a24.042,24.042,0,0,1,22.629,16H145.371A24.042,24.042,0,0,1,168,464ZM210.246,448l12-48h67.508l12,48ZM88,384a24.027,24.027,0,0,1-24-24V336H448v24a24.027,24.027,0,0,1-24,24Z"/><circle cx="120" cy="56" r="8"/><circle cx="152" cy="56" r="8"/><circle cx="184" cy="56" r="8"/><path fill="#5866eb" d="M176,208a8,8,0,0,0,0,16h24v8a40.028,40.028,0,0,0,.805,8H192a8,8,0,0,0,0,16h16.021A39.965,39.965,0,0,0,240,272h32a39.965,39.965,0,0,0,31.979-16H320a8,8,0,0,0,0-16H311.2a40.028,40.028,0,0,0,.805-8v-8h24a8,8,0,0,0,0-16H312V192h24a8,8,0,0,0,0-16H310.624A24.106,24.106,0,0,0,295.4,161.175,40.038,40.038,0,0,0,280,136.022V136a8.009,8.009,0,0,1,8-8,8,8,0,0,0,0-16,24.042,24.042,0,0,0-22.968,17.041,39.7,39.7,0,0,0-18.064,0A24.042,24.042,0,0,0,224,112a8,8,0,0,0,0,16,8.009,8.009,0,0,1,8,8v.022a40.038,40.038,0,0,0-15.4,25.153A24.106,24.106,0,0,0,201.376,176H176a8,8,0,0,0,0,16h24v16Zm120,24a24.027,24.027,0,0,1-24,24h-8V208h32Zm-40-88a24.039,24.039,0,0,1,22.624,16H233.376A24.039,24.039,0,0,1,256,144Zm-40,40a8.009,8.009,0,0,1,8-8h64a8.009,8.009,0,0,1,8,8v8H216Zm0,24h32v48h-8a24.027,24.027,0,0,1-24-24Z"/></svg>
