<?xml version="1.0" encoding="UTF-8"?>
<svg xmlns="http://www.w3.org/2000/svg" viewBox="0 0 64 64" width="512" height="512"><g id="centralized"><path fill="#f92596" d="M28,10h3v4a1,1,0,0,0,2,0V10h3a1,1,0,0,0,1-1V1a1,1,0,0,0-1-1H28a1,1,0,0,0-1,1V9A1,1,0,0,0,28,10Zm1-8h6V8H29Z"/><path fill="#f92596" d="M36,54H33V50a1,1,0,0,0-2,0v4H28a1,1,0,0,0-1,1v8a1,1,0,0,0,1,1h8a1,1,0,0,0,1-1V55A1,1,0,0,0,36,54Zm-1,8H29V56h6Z"/><path fill="#f92596" d="M63,0H51a1,1,0,0,0-1,1V12.586l-6.707,6.707a1,1,0,0,0,1.414,1.414L51.414,14H63a1,1,0,0,0,1-1V1A1,1,0,0,0,63,0ZM62,12H52V2H62Z"/><path fill="#f92596" d="M31.5,17.136l-12,7A1.037,1.037,0,0,0,19,25V39a1,1,0,0,0,.5.864l12,7a1,1,0,0,0,1.008,0l12-7A1,1,0,0,0,45,39V25a1.038,1.038,0,0,0-.5-.864l-12-7A1,1,0,0,0,31.5,17.136ZM21,26.741l10,5.833V44.259L21,38.426ZM33,44.259V32.574l10-5.833V38.426ZM32,30.842,21.984,25,32,19.158,42.016,25Z"/><path fill="#f92596" d="M63,27H55a1,1,0,0,0-1,1v3H48a1,1,0,0,0,0,2h6v3a1,1,0,0,0,1,1h8a1,1,0,0,0,1-1V28A1,1,0,0,0,63,27Zm-1,8H56V29h6Z"/><path fill="#f92596" d="M1,37H9a1,1,0,0,0,1-1V33h6a1,1,0,0,0,0-2H10V28a1,1,0,0,0-1-1H1a1,1,0,0,0-1,1v8A1,1,0,0,0,1,37Zm1-8H8v6H2Z"/><path fill="#f92596" d="M1,14H12.586l6.707,6.707a1,1,0,0,0,1.414-1.414L14,12.586V1a1,1,0,0,0-1-1H1A1,1,0,0,0,0,1V13A1,1,0,0,0,1,14ZM2,2H12V12H2Z"/><path fill="#f92596" d="M63,50H51.414l-6.707-6.707a1,1,0,0,0-1.414,1.414L50,51.414V63a1,1,0,0,0,1,1H63a1,1,0,0,0,1-1V51A1,1,0,0,0,63,50ZM62,62H52V52H62Z"/><path fill="#f92596" d="M19.293,43.293,12.586,50H1a1,1,0,0,0-1,1V63a1,1,0,0,0,1,1H13a1,1,0,0,0,1-1V51.414l6.707-6.707a1,1,0,0,0-1.414-1.414ZM12,62H2V52H12Z"/></g></svg>
