<svg enable-background="new -53.828 -60.202 1024 1024" height="1024" viewBox="-53.828 -60.202 1024 1024" width="1024" xmlns="http://www.w3.org/2000/svg"><g><g><path fill="#f92596" d="m823.866 198.081c-.019 1.209-.069 2.411-.173 3.616-.286 3.353.71-3.812-.11.429-.504 2.605-1.32 5.141-2.294 7.605 1.911-4.837.132-.432-.436.692-.59 1.168-1.244 2.303-1.916 3.425-.695 1.159-1.449 2.282-2.22 3.391-.396.569-.809 1.126-1.222 1.683 2.785-3.752.648-.853-.012-.05-4.128 5.017-8.947 9.443-13.995 13.515-.652.526-3.079 2.37.146-.094-.691.528-1.394 1.043-2.095 1.559-1.441 1.059-2.912 2.077-4.39 3.084-3.386 2.305-6.875 4.452-10.409 6.52-7.532 4.407-15.368 8.285-23.319 11.873-1.022.461-2.051.912-3.078 1.362-.468.205-3.979 1.702-.85.383-2.15.907-4.314 1.78-6.482 2.644-4.895 1.949-9.839 3.771-14.807 5.524-21.526 7.598-43.646 13.477-65.92 18.417-54.43 12.07-108.021 17.762-164.015 20.211-60.877 2.663-122.062.809-182.62-6.012-47.751-5.378-98.018-14.629-144.947-30.163-9.617-3.183-19.118-6.717-28.466-10.621 3.133 1.308-.381-.179-.85-.383-1.029-.447-2.054-.904-3.079-1.362-2.005-.896-3.995-1.825-5.98-2.766-4.101-1.944-8.142-4.013-12.131-6.176-6.923-3.753-13.63-7.912-20.007-12.535-.705-.511-1.4-1.035-2.095-1.559 3.236 2.44.803.617.146.094-1.293-1.029-2.555-2.097-3.804-3.179-2.551-2.211-4.975-4.566-7.282-7.029-1.004-1.072-1.965-2.182-2.909-3.307-.459-.547-.902-1.107-1.345-1.667 2.739 3.464 1.083 1.385.51.596-1.699-2.339-3.201-4.815-4.535-7.378-.573-1.102-2.421-5.527-.436-.692-.47-1.144-.87-2.315-1.244-3.493-.367-1.158-.661-2.338-.927-3.522-.131-.587-.237-1.18-.343-1.772-.419-2.354.457 4.201.109.753-.242-2.394-.21-4.807-.007-7.202.285-3.354-.71 3.812.108-.429.268-1.39.64-2.759 1.047-4.113.357-1.184.789-2.344 1.242-3.494-1.908 4.838-.134.432.433-.693 1.301-2.581 2.86-5.025 4.531-7.379.56-.789 2.201-2.91-.512.596.437-.565.891-1.116 1.344-1.668.933-1.134 1.914-2.227 2.907-3.307 2.285-2.484 4.747-4.802 7.28-7.031 1.241-1.092 2.517-2.142 3.803-3.18.652-.527 3.078-2.371-.146.093.691-.529 1.393-1.044 2.094-1.559 3.188-2.342 6.491-4.524 9.842-6.624 7.167-4.491 14.667-8.439 22.292-12.091 1.981-.949 3.978-1.863 5.98-2.766 1.022-.461 2.05-.912 3.078-1.362.468-.205 3.978-1.703.85-.383 4.731-1.996 9.517-3.86 14.327-5.655 45.289-16.901 93.339-26.408 141.112-32.937 57.309-7.832 119.191-10.369 178.409-8.965 57.231 1.357 113.083 6.483 168.518 17.275 23.313 4.539 46.436 10.164 69.104 17.268 9.909 3.105 19.711 6.557 29.37 10.37 2.171.856 4.329 1.745 6.481 2.644-3.132-1.309.381.18.851.383 1.029.447 2.054.904 3.078 1.362 4.27 1.909 8.485 3.939 12.653 6.062 8.06 4.104 15.882 8.693 23.299 13.872.974.68 6.295 4.685 2.78 1.963 1.539 1.191 3.038 2.433 4.518 3.697 2.772 2.369 5.402 4.902 7.895 7.563 1.167 1.247 2.278 2.543 3.363 3.862.616.75 2.237 2.938-.446-.604.557.734 1.086 1.489 1.611 2.246 1.751 2.524 3.272 5.203 4.584 7.979.447.945 1.372 3.311-.409-1.032.314.765.592 1.545.863 2.326.468 1.344.841 2.719 1.172 4.102.141.586.255 1.178.369 1.77.656 3.405-.34-3.123-.066-.757.166 1.388.219 2.786.23 4.182.059 7.631 6.324 14 14 14 7.587 0 14.059-6.368 14-14-.226-29.288-23.517-50.86-46.414-65.547-34.029-21.827-74.485-34.208-113.445-43.721-53.626-13.094-108.865-19.939-163.898-23.377-61.212-3.823-122.818-2.926-183.886 2.742-52.383 4.862-104.867 13.093-155.442 27.825-36.295 10.572-73.314 24.545-103.018 48.521-20.447 16.504-35.427 41.73-27.741 68.572 8.184 28.581 36.56 47.521 61.5 60.349 39.038 20.078 82.379 31.708 125.218 40.308 56.406 11.322 114.033 16.855 171.493 18.659 60.488 1.899 121.229-.59 181.281-8.17 49.464-6.243 98.974-15.507 146.134-32 27.825-9.731 55.219-21.966 78.293-40.582 16.424-13.25 29.588-31.823 29.925-53.578.118-7.632-6.458-14-14-14-7.721-.001-13.882 6.369-14 13.999z"/></g></g><g><g><path fill="#f92596" d="m837.757 209.678h.51c-4.667-4.667-9.333-9.333-14-14v85.323 185.162 178.789 67.72c0 7.632 6.368 14 14 14s14-6.368 14-14c0-28.441 0-56.882 0-85.323 0-61.721 0-123.441 0-185.162 0-59.597 0-119.193 0-178.79 0-22.573 0-45.146 0-67.719 0-7.632-6.368-14-14-14-.17 0-.34 0-.51 0-7.632 0-14 6.368-14 14s6.368 14 14 14z"/></g></g><g><g><path fill="#f92596" d="m83.266 712.672c0-28.441 0-56.882 0-85.323 0-61.721 0-123.441 0-185.162 0-59.597 0-119.193 0-178.79 0-22.573 0-45.146 0-67.719-4.667 4.667-9.333 9.333-14 14h.51c7.632 0 14-6.368 14-14s-6.368-14-14-14c-.17 0-.34 0-.51 0-7.632 0-14 6.368-14 14v85.323 185.162 178.789 67.72c0 7.632 6.368 14 14 14s14-6.368 14-14z"/></g></g><g><g><path fill="#f92596" d="m823.866 368.415c-.019 1.209-.069 2.411-.173 3.616-.286 3.353.71-3.812-.11.428-.504 2.605-1.32 5.142-2.294 7.606 1.911-4.838.132-.433-.436.692-.59 1.168-1.244 2.302-1.916 3.425-.695 1.159-1.449 2.281-2.22 3.391-.396.569-.809 1.126-1.222 1.683 2.785-3.752.648-.852-.012-.05-4.128 5.017-8.947 9.443-13.995 13.515-.652.526-3.079 2.37.146-.094-.691.528-1.394 1.043-2.095 1.559-1.441 1.059-2.912 2.077-4.39 3.083-3.386 2.305-6.875 4.453-10.409 6.52-7.532 4.407-15.368 8.285-23.319 11.873-1.022.461-2.051.912-3.078 1.362-.468.205-3.979 1.702-.85.383-2.15.906-4.314 1.78-6.482 2.643-4.895 1.95-9.839 3.771-14.807 5.524-21.526 7.598-43.646 13.477-65.92 18.417-54.43 12.069-108.021 17.762-164.015 20.211-60.877 2.662-122.062.809-182.62-6.012-47.751-5.379-98.019-14.629-144.947-30.163-9.617-3.184-19.118-6.717-28.466-10.621 3.133 1.308-.381-.18-.85-.383-1.029-.446-2.054-.904-3.078-1.362-2.005-.896-3.996-1.825-5.98-2.766-4.101-1.944-8.142-4.013-12.131-6.175-6.923-3.753-13.63-7.912-20.007-12.535-.705-.511-1.399-1.035-2.095-1.559 3.237 2.44.804.617.146.094-1.293-1.029-2.555-2.097-3.804-3.179-2.551-2.211-4.975-4.566-7.283-7.029-1.167-1.247-2.28-2.543-3.365-3.861-.617-.75-2.241-2.937.445.604-.557-.734-1.087-1.488-1.613-2.245-1.752-2.524-3.274-5.202-4.588-7.978-.447-.944-1.375-3.31.408 1.033-.314-.765-.592-1.544-.864-2.326-.468-1.344-.842-2.718-1.174-4.101-.141-.586-.255-1.178-.37-1.77-.659-3.405.339 3.123.064.757-.163-1.398-.211-2.805-.233-4.211-.118-7.629-6.279-14-14-14-7.542 0-14.118 6.368-14 14 .455 29.368 23.386 50.781 46.443 65.565 34.033 21.821 74.486 34.2 113.446 43.709 53.621 13.09 108.853 19.935 163.88 23.371 61.202 3.822 122.798 2.925 183.857-2.741 52.378-4.861 104.855-13.09 155.426-27.817 36.297-10.571 73.313-24.542 103.023-48.51 16.424-13.25 29.588-31.823 29.925-53.577.118-7.632-6.458-14-14-14-7.719.001-13.88 6.371-13.998 14.001z"/></g></g><g><g><path fill="#f92596" d="m823.866 538.748c-.019 1.209-.069 2.411-.173 3.616-.286 3.353.71-3.812-.11.428-.504 2.605-1.32 5.142-2.294 7.605 1.911-4.837.132-.432-.436.692-.59 1.169-1.244 2.303-1.916 3.425-.695 1.159-1.449 2.282-2.22 3.392-.396.569-.809 1.126-1.222 1.682 2.785-3.752.648-.852-.012-.049-4.128 5.017-8.947 9.442-13.995 13.515-.652.526-3.079 2.369.146-.094-.691.528-1.394 1.043-2.095 1.559-1.441 1.059-2.912 2.077-4.39 3.083-3.386 2.305-6.875 4.453-10.409 6.52-7.532 4.407-15.368 8.285-23.319 11.873-1.022.462-2.051.912-3.078 1.362-.468.205-3.979 1.702-.85.383-2.15.906-4.314 1.779-6.482 2.644-4.895 1.949-9.839 3.771-14.807 5.524-21.526 7.598-43.646 13.477-65.92 18.416-54.43 12.069-108.021 17.762-164.015 20.211-60.877 2.662-122.062.809-182.62-6.013-47.751-5.378-98.019-14.628-144.947-30.162-9.617-3.183-19.118-6.717-28.466-10.62 3.133 1.308-.381-.18-.85-.383-1.029-.447-2.054-.904-3.078-1.362-2.005-.896-3.996-1.824-5.98-2.766-4.101-1.944-8.142-4.013-12.131-6.175-6.923-3.753-13.63-7.912-20.007-12.535-.705-.511-1.399-1.035-2.095-1.559 3.237 2.439.804.617.146.094-1.293-1.029-2.555-2.098-3.804-3.18-2.551-2.211-4.975-4.565-7.283-7.029-1.167-1.246-2.28-2.542-3.365-3.86-.617-.75-2.241-2.938.445.604-.557-.734-1.087-1.488-1.613-2.245-1.752-2.523-3.274-5.201-4.588-7.978-.447-.944-1.375-3.31.408 1.032-.314-.765-.592-1.544-.864-2.325-.468-1.344-.842-2.718-1.174-4.102-.141-.586-.255-1.178-.37-1.77-.659-3.404.339 3.123.064.758-.163-1.398-.211-2.805-.233-4.211-.118-7.63-6.279-14-14-14-7.542 0-14.118 6.368-14 14 .455 29.367 23.386 50.781 46.443 65.565 34.033 21.82 74.486 34.199 113.446 43.71 53.621 13.089 108.853 19.934 163.88 23.37 61.202 3.821 122.798 2.925 183.857-2.741 52.378-4.861 104.855-13.09 155.426-27.817 36.297-10.571 73.313-24.542 103.023-48.51 16.424-13.25 29.588-31.823 29.925-53.577.118-7.632-6.458-14-14-14-7.719 0-13.88 6.37-13.998 14z"/></g></g><g><g><path fill="#f92596" d="m824.116 709.081c-.019 1.209-.069 2.411-.173 3.616-.286 3.353.71-3.812-.11.428-.504 2.605-1.32 5.142-2.294 7.605 1.911-4.837.132-.432-.436.692-.59 1.169-1.244 2.303-1.916 3.425-.695 1.159-1.449 2.281-2.22 3.392-.396.569-.809 1.126-1.222 1.682 2.785-3.752.648-.852-.012-.049-4.128 5.017-8.947 9.442-13.995 13.515-.652.526-3.079 2.369.146-.094-.691.528-1.394 1.043-2.095 1.559-1.441 1.059-2.912 2.077-4.39 3.083-3.386 2.305-6.875 4.452-10.409 6.521-7.532 4.406-15.368 8.284-23.319 11.872-1.022.462-2.051.912-3.078 1.362-.468.205-3.979 1.701-.85.383-2.15.906-4.314 1.779-6.482 2.644-4.895 1.949-9.839 3.771-14.807 5.524-21.526 7.598-43.646 13.477-65.92 18.416-54.43 12.069-108.021 17.762-164.015 20.211-60.877 2.662-122.062.809-182.62-6.012-47.751-5.379-98.019-14.629-144.947-30.163-9.617-3.183-19.118-6.717-28.466-10.62 3.133 1.308-.381-.18-.85-.383-1.029-.447-2.054-.904-3.078-1.362-2.005-.896-3.996-1.824-5.98-2.766-4.101-1.944-8.142-4.013-12.131-6.175-6.923-3.754-13.63-7.912-20.007-12.535-.705-.512-1.399-1.035-2.095-1.559 3.237 2.439.804.617.146.094-1.293-1.029-2.555-2.098-3.804-3.18-2.551-2.211-4.975-4.565-7.283-7.029-1.167-1.246-2.28-2.542-3.365-3.86-.617-.75-2.241-2.938.445.604-.557-.733-1.087-1.488-1.613-2.245-1.752-2.523-3.274-5.201-4.588-7.978-.447-.944-1.375-3.31.408 1.032-.314-.765-.592-1.544-.864-2.325-.468-1.344-.842-2.718-1.174-4.102-.141-.586-.255-1.178-.37-1.77-.659-3.404.339 3.123.064.758-.163-1.398-.211-2.805-.233-4.211-.118-7.63-6.279-14-14-14-7.542 0-14.118 6.368-14 14 .455 29.367 23.386 50.781 46.443 65.565 34.033 21.82 74.486 34.199 113.446 43.709 53.621 13.09 108.853 19.935 163.88 23.371 61.202 3.822 122.798 2.925 183.857-2.741 52.378-4.861 104.855-13.09 155.426-27.817 36.297-10.571 73.313-24.541 103.023-48.51 16.424-13.25 29.588-31.823 29.925-53.577.118-7.632-6.458-14-14-14-7.719 0-13.88 6.37-13.998 14z"/></g></g></svg>