<svg version="1.1" id="Capa_1" xmlns="http://www.w3.org/2000/svg" xmlns:xlink="http://www.w3.org/1999/xlink" x="0px" y="0px" viewBox="0 0 512 512" style="enable-background:new 0 0 512 512;" xml:space="preserve">
<g>
	
		<polyline style="fill:none;stroke:#39c0fa;stroke-width:15;stroke-linecap:round;stroke-linejoin:round;stroke-miterlimit:10;" points="&#10;&#9;&#9;208.138,411.687 177.503,381.052 208.138,350.417 &#9;"/>
	
		<polyline style="fill:none;stroke:#39c0fa;stroke-width:15;stroke-linecap:round;stroke-linejoin:round;stroke-miterlimit:10;" points="&#10;&#9;&#9;303.862,411.687 334.497,381.052 303.862,350.417 &#9;"/>
	
		<line style="fill:none;stroke:#39c0fa;stroke-width:15;stroke-linecap:round;stroke-linejoin:round;stroke-miterlimit:10;" x1="242.225" y1="419.206" x2="269.776" y2="342.898"/>
	
		<line style="fill:none;stroke:#39c0fa;stroke-width:15;stroke-linecap:round;stroke-linejoin:round;stroke-miterlimit:10;" x1="371.225" y1="398.732" x2="453.296" y2="398.732"/>
	
		<line style="fill:none;stroke:#39c0fa;stroke-width:15;stroke-linecap:round;stroke-linejoin:round;stroke-miterlimit:10;" x1="453.296" y1="363.372" x2="371.225" y2="363.372"/>
	
		<line style="fill:none;stroke:#39c0fa;stroke-width:15;stroke-linecap:round;stroke-linejoin:round;stroke-miterlimit:10;" x1="75.553" y1="398.732" x2="139.504" y2="398.732"/>
	
		<line style="fill:none;stroke:#39c0fa;stroke-width:15;stroke-linecap:round;stroke-linejoin:round;stroke-miterlimit:10;" x1="107.528" y1="363.372" x2="139.504" y2="363.372"/>
	<path style="fill:none;stroke:#39c0fa;stroke-width:15;stroke-linecap:round;stroke-linejoin:round;stroke-miterlimit:10;" d="&#10;&#9;&#9;M404.192,161.38l65.378,0.03c8.28,0,15,6.72,14.99,15l-0.13,274"/>
	<path style="fill:none;stroke:#39c0fa;stroke-width:15;stroke-linecap:round;stroke-linejoin:round;stroke-miterlimit:10;" d="&#10;&#9;&#9;M27.53,232.08l0.03-55.88c0.01-8.28,6.72-14.99,15.01-14.99l68.05,0.03"/>
	
		<line style="fill:none;stroke:#39c0fa;stroke-width:15;stroke-linecap:round;stroke-linejoin:round;stroke-miterlimit:10;" x1="27.52" y1="267.08" x2="27.48" y2="342.23"/>
	
		<line style="fill:none;stroke:#39c0fa;stroke-width:15;stroke-linecap:round;stroke-linejoin:round;stroke-miterlimit:10;" x1="27.432" y1="450.204" x2="27.45" y2="411.687"/>
	<path style="fill:none;stroke:#39c0fa;stroke-width:15;stroke-linecap:round;stroke-linejoin:round;stroke-miterlimit:10;" d="&#10;&#9;&#9;M145.78,451.31h232.93h35h80.79c5.52,0,10,4.48,10,10c0,8.29-3.36,15.79-8.79,21.21c-5.43,5.43-12.93,8.79-21.21,8.79h-44.74"/>
	<path style="fill:none;stroke:#39c0fa;stroke-width:15;stroke-linecap:round;stroke-linejoin:round;stroke-miterlimit:10;" d="&#10;&#9;&#9;M110.78,451.31H17.5c-2.76,0-5.26,1.12-7.07,2.93s-2.93,4.31-2.93,7.07c0,16.57,13.43,30,30,30h357.26"/>
	
		<line style="fill:none;stroke:#39c0fa;stroke-width:15;stroke-linecap:round;stroke-linejoin:round;stroke-miterlimit:10;" x1="111.773" y1="270.782" x2="137.972" y2="248.113"/>
	<path style="fill:none;stroke:#39c0fa;stroke-width:15;stroke-linecap:round;stroke-linejoin:round;stroke-miterlimit:10;" d="&#10;&#9;&#9;M128.277,336.557l-56.409,65.189c-13.926,16.093-38.584,16.982-53.632,1.934l0,0c-15.048-15.048-14.159-39.707,1.934-53.632&#10;&#9;&#9;l64.956-56.207"/>
	
		<line style="fill:none;stroke:#39c0fa;stroke-width:15;stroke-linecap:round;stroke-linejoin:round;stroke-miterlimit:10;" x1="173.77" y1="283.983" x2="151.719" y2="309.466"/>
	<path style="fill:none;stroke:#39c0fa;stroke-width:15;stroke-linecap:round;stroke-linejoin:round;stroke-miterlimit:10;" d="&#10;&#9;&#9;M130.425,336.865l-45.374-45.374c-2.166-2.166-2.166-5.677,0-7.842l14.564-14.564c2.166-2.166,5.677-2.166,7.842,0l45.374,45.374&#10;&#9;&#9;c2.166,2.166,2.166,5.677,0,7.842l-14.564,14.564C136.101,339.031,132.59,339.031,130.425,336.865z"/>
	<path style="fill:none;stroke:#39c0fa;stroke-width:15;stroke-linecap:round;stroke-linejoin:round;stroke-miterlimit:10;" d="&#10;&#9;&#9;M369.02,256.36c20.14-24.86,32.2-56.52,32.2-91c0-79.9-64.77-144.67-144.67-144.67S111.88,85.46,111.88,165.36&#10;&#9;&#9;c0,30.8,9.62,59.35,26.03,82.81c9.75,13.94,21.9,26.09,35.84,35.84c23.46,16.4,52.01,26.02,82.8,26.02&#10;&#9;&#9;c32.8,0,63.05-10.91,87.32-29.32"/>
	
		<circle style="fill:none;stroke:#39c0fa;stroke-width:15;stroke-linecap:round;stroke-linejoin:round;stroke-miterlimit:10;" cx="256.554" cy="165.362" r="113.694"/>
	<path style="fill:none;stroke:#39c0fa;stroke-width:15;stroke-linecap:round;stroke-linejoin:round;stroke-miterlimit:10;" d="&#10;&#9;&#9;M234.737,129.658v-8.977c0-12.031,9.753-21.784,21.784-21.784h0c12.031,0,21.784,9.753,21.784,21.784v8.977"/>
	
		<line style="fill:none;stroke:#39c0fa;stroke-width:15;stroke-linecap:round;stroke-linejoin:round;stroke-miterlimit:10;" x1="256.521" y1="156.191" x2="256.521" y2="230.693"/>
	<path style="fill:none;stroke:#39c0fa;stroke-width:15;stroke-linecap:round;stroke-linejoin:round;stroke-miterlimit:10;" d="&#10;&#9;&#9;M269.956,233.971h-26.87c-6.047,0-11.735-2.875-15.32-7.745l0,0c-8.654-11.754-13.322-25.967-13.322-40.564v-17.206&#10;&#9;&#9;c0-23.239,18.839-42.077,42.077-42.077h0c23.239,0,42.077,18.839,42.077,42.077v17.206c0,14.596-4.668,28.81-13.322,40.564l0,0&#10;&#9;&#9;C281.691,231.096,276.003,233.971,269.956,233.971z"/>
	
		<line style="fill:none;stroke:#39c0fa;stroke-width:15;stroke-linecap:round;stroke-linejoin:round;stroke-miterlimit:10;" x1="218.977" y1="152.488" x2="294.065" y2="152.488"/>
	<path style="fill:none;stroke:#39c0fa;stroke-width:15;stroke-linecap:round;stroke-linejoin:round;stroke-miterlimit:10;" d="&#10;&#9;&#9;M243.239,103.419L243.239,103.419c-6.734-5.014-10.702-12.915-10.702-21.31v-0.906"/>
	<path style="fill:none;stroke:#39c0fa;stroke-width:15;stroke-linecap:round;stroke-linejoin:round;stroke-miterlimit:10;" d="&#10;&#9;&#9;M269.803,103.419L269.803,103.419c6.734-5.014,10.702-12.915,10.702-21.31v-0.906"/>
	
		<polyline style="fill:none;stroke:#39c0fa;stroke-width:15;stroke-linecap:round;stroke-linejoin:round;stroke-miterlimit:10;" points="&#10;&#9;&#9;216.784,153.679 202.964,139.859 183.69,139.859 &#9;"/>
	
		<polyline style="fill:none;stroke:#39c0fa;stroke-width:15;stroke-linecap:round;stroke-linejoin:round;stroke-miterlimit:10;" points="&#10;&#9;&#9;213.499,180.175 193.955,180.175 178.964,195.166 &#9;"/>
	
		<polyline style="fill:none;stroke:#39c0fa;stroke-width:15;stroke-linecap:round;stroke-linejoin:round;stroke-miterlimit:10;" points="&#10;&#9;&#9;215.975,206.374 202.155,220.194 202.155,235.633 &#9;"/>
	
		<polyline style="fill:none;stroke:#39c0fa;stroke-width:15;stroke-linecap:round;stroke-linejoin:round;stroke-miterlimit:10;" points="&#10;&#9;&#9;296.258,153.679 310.078,139.859 329.417,139.859 &#9;"/>
	
		<polyline style="fill:none;stroke:#39c0fa;stroke-width:15;stroke-linecap:round;stroke-linejoin:round;stroke-miterlimit:10;" points="&#10;&#9;&#9;299.543,180.175 319.087,180.175 334.078,195.166 &#9;"/>
	
		<polyline style="fill:none;stroke:#39c0fa;stroke-width:15;stroke-linecap:round;stroke-linejoin:round;stroke-miterlimit:10;" points="&#10;&#9;&#9;297.068,206.374 310.887,220.194 310.887,235.633 &#9;"/>
</g>
<g>
</g>
<g>
</g>
<g>
</g>
<g>
</g>
<g>
</g>
<g>
</g>
<g>
</g>
<g>
</g>
<g>
</g>
<g>
</g>
<g>
</g>
<g>
</g>
<g>
</g>
<g>
</g>
<g>
</g>
</svg>