<svg xmlns="http://www.w3.org/2000/svg" viewBox="0 0 24 24" id="django">
  <path fill="#8e56ff" d="M21.25 6.06v-.001h-3.897v7.747c0 3.414-.177 4.714-.734 5.835-.531 1.096-1.367 1.81-3.088 2.625L17.15 24c1.721-.866 2.556-1.656 3.189-2.905.683-1.299.911-2.803.911-5.937V6.06z"></path>
  <path fill="#8e56ff" d="M15.049 18.166V0h-3.897v5.984a6.182 6.182 0 0 0-1.695-.204c-4.075 0-6.707 2.599-6.707 6.6 0 4.154 2.48 6.32 7.238 6.32 1.594.001 3.062-.152 5.061-.534zm-8.326-5.862c0-2.141 1.138-3.364 3.113-3.364h-.004c.028-.002.055-.002.082-.002.443 0 .868.075 1.237.205v6.294a8.933 8.933 0 0 1-1.341.102c-1.998.001-3.087-1.145-3.087-3.235zM17.353.021h3.897v4.026h-3.897z"></path>
</svg>
