<svg fill="#8e56ff" height="681pt" viewBox="-21 -21 681.33299 681" width="681pt" xmlns="http://www.w3.org/2000/svg"><path d="m468.132812 427.222656-137.230468-279.941406c-2.097656-4.277344-6.4375-6.984375-11.207032-6.984375-4.765624 0-9.105468 2.707031-11.203124 6.984375l-137.230469 279.941406c-2.105469 4.289063-1.570313 9.402344 1.390625 13.171875l77.445312 98.730469h-22.71875c-17.890625 0-32.4375 14.535156-32.4375 32.398438v49.855468c0 9.628906 7.835938 17.449219 17.464844 17.449219h214.582031c9.628907 0 17.464844-7.820313 17.464844-17.449219v-49.855468c0-17.863282-14.546875-32.398438-32.4375-32.398438h-22.980469l77.699219-98.722656c2.96875-3.765625 3.503906-8.878906 1.398437-13.179688zm-56.117187 136.824219c4.128906 0 7.484375 3.359375 7.484375 7.476563v42.378906h-199.609375v-42.378906c0-4.117188 3.359375-7.476563 7.488281-7.476563zm-54.714844-24.921875h-75.519531l-84.667969-107.964844 122.582031-250.070312 122.585938 250.058594zm0 0"/><path d="m369.449219 436.5625c-.835938-13.324219-6.800781-25.484375-16.765625-34.269531-5.914063-5.1875-12.929688-8.898438-20.511719-10.828125v-88.839844c0-6.875-5.589844-12.460938-12.476563-12.460938-6.882812 0-12.472656 5.585938-12.472656 12.460938v88.828125c-9.535156 2.429687-18.242187 7.683594-24.976562 15.304687-8.332032 9.460938-12.425782 21.210938-12.425782 32.910157 0 13.835937 5.714844 27.613281 16.890626 37.449219 9.15625 8.0625 20.734374 12.402343 32.886718 12.402343 1.082032 0 2.171875-.035156 3.257813-.09375 13.324219-.851562 25.511719-6.804687 34.292969-16.769531 8.78125-9.957031 13.148437-22.785156 12.300781-36.09375zm-31.023438 19.625c-6.785156 7.691406-17.988281 10.414062-27.582031 6.8125-9.65625-3.625-16.070312-13.109375-16.050781-23.386719.015625-10.511719 6.839843-20.082031 16.804687-23.46875 10.007813-3.398437 21.421875-.023437 27.875 8.367188 7.144532 9.292969 6.707032 22.878906-1.046875 31.675781zm0 0"/><path d="m620.992188 267.421875h-19.402344c-1.765625-20.648437-8.09375-64.128906-30.535156-108.027344-17.464844-34.15625-46.972657-72.355469-96.324219-96.671875h65.945312c3.246094 12.277344 10.878907 22.691406 21.65625 29.429688 8.011719 5.027344 17.089844 7.625 26.359375 7.625 3.757813 0 7.539063-.425782 11.28125-1.289063 13.023438-2.964843 24.089844-10.804687 31.152344-22.039062 7.070312-11.246094 9.316406-24.605469 6.347656-37.617188-2.980468-13-10.816406-24.050781-22.070312-31.113281-11.253906-7.058594-24.625-9.320312-37.652344-6.339844-13.019531 2.96875-24.085938 10.804688-31.148438 22.046875-2.820312 4.503907-4.878906 9.332031-6.140624 14.347657h-170.863282v-19.925782c0-9.628906-7.835937-17.453125-17.464844-17.453125h-64.871093c-9.632813 0-17.46875 7.824219-17.46875 17.453125v20.558594h-171.035157c-5.214843-21.945312-24.992187-38.3242188-48.542968-38.3242188-27.511719 0-49.902344 22.3710938-49.902344 49.8554688 0 27.496094 22.390625 49.847656 49.902344 49.847656 22.878906 0 42.203125-15.441406 48.070312-36.453125h66.144532c-49.519532 24.3125-79.109376 62.515625-96.613282 96.671875-22.503906 43.90625-28.84375 87.378906-30.628906 108.042969h-19.722656c-9.628906 0-17.464844 7.820313-17.464844 17.449219v64.808594c0 9.621093 7.835938 17.441406 17.464844 17.441406h64.875c9.628906 0 17.464844-7.820313 17.464844-17.441406v-64.808594c0-9.628906-7.835938-17.449219-17.464844-17.449219h-20.0625c1.871094-19.304687 7.972656-58.089844 27.746094-96.675781 16.09375-31.398438 38.003906-56.367188 65.121093-74.21875 31.238281-20.558594 69.761719-31.835938 114.648438-33.570313v19.074219c0 9.621094 7.835937 17.441406 17.46875 17.441406h64.871093c9.628907 0 17.464844-7.820312 17.464844-17.441406v-19.683594c44.539063 1.734375 82.789063 12.910156 113.851563 33.285156 27.023437 17.730469 48.878906 42.527344 64.976562 73.726563 19.945313 38.675781 26.132813 77.949219 28.042969 97.4375h-20.347656c-9.632813 0-17.46875 7.820313-17.46875 17.449219v64.8125c0 9.617187 7.835937 17.441406 17.46875 17.441406h64.871094c9.628906 0 17.464843-7.824219 17.464843-17.441406v-64.8125c0-9.628906-7.835937-17.449219-17.464843-17.449219zm-53.253907-230.734375c5.484375-8.761719 16.269531-13.269531 26.386719-11.113281 9.945312 2.121093 17.640625 10.3125 19.3125 20.308593 1.707031 10.210938-3.257812 20.695313-12.320312 25.742188-9.4375 5.261719-21.53125 3.859375-29.402344-3.582031-8.492188-8.027344-10.214844-21.464844-3.976563-31.355469 3.511719-5.613281-3.535156 5.597656 0 0zm-517.523437 38.171875c-13.75 0-24.953125-11.175781-24.953125-24.921875s11.203125-24.925781 24.953125-24.925781c13.761718 0 24.949218 11.179687 24.949218 24.925781s-11.1875 24.921875-24.949218 24.921875zm24.640625 218.113281v49.847656h-49.902344v-49.847656zm269.792969-217.800781h-49.902344v-49.851563h49.902344zm268.859374 267.027344h-49.902343v-49.851563h49.902343zm0 0"/><path d="m319.722656 265.238281c-6.890625 0-12.480468-5.578125-12.480468-12.460937 0-6.882813 5.578124-12.464844 12.46875-12.464844h.011718c6.890625 0 12.472656 5.582031 12.472656 12.464844 0 6.882812-5.582031 12.460937-12.472656 12.460937zm0 0"/></svg>