<svg id="Image" height="512" viewBox="0 0 64 64" width="512" xmlns="http://www.w3.org/2000/svg"><g><path fill="#f92596" d="m27.905 50.806c-1.275.129-2.589.194-3.905.194-10.169 0-17-3.62-17-7v-5.936c3.086 2.949 9.455 4.936 17 4.936s13.914-1.987 17-4.936v5.02c0 1.322 2 1.324 2 0v-29.084c0-5.047-8.346-9-19-9s-19 3.953-19 9v30c0 5.047 8.346 9 19 9 1.383 0 2.764-.068 4.105-.204 1.311-.132 1.123-2.117-.2-1.99zm13.095-26.806c0 3.38-6.831 7-17 7s-17-3.62-17-7v-5.936c3.086 2.949 9.455 4.936 17 4.936s13.914-1.987 17-4.936zm-17 17c-10.169 0-17-3.62-17-7v-5.936c3.086 2.949 9.455 4.936 17 4.936s13.914-1.987 17-4.936v5.936c0 3.38-6.831 7-17 7zm0-34c10.169 0 17 3.62 17 7s-6.831 7-17 7-17-3.62-17-7 6.831-7 17-7z"/><circle fill="#f92596" cx="11.5" cy="24.5" r="1.5"/><circle fill="#f92596" cx="11.5" cy="34.5" r="1.5"/><circle fill="#f92596" cx="11.5" cy="44.5" r="1.5"/><path fill="#f92596" d="m35.001 47c1.102 0 1.999.897 1.999 2 0 1.322 2 1.324 2 0 0-2.206-1.794-4-3.999-4-2.206 0-4.001 1.794-4.001 4s1.795 4 4.001 4c1.102 0 1.999.897 1.999 2s-.897 2-1.999 2c-1.104 0-2.001-.897-2.001-2 0-1.322-2-1.324-2 0 0 2.206 1.795 4 4.001 4 2.205 0 3.999-1.794 3.999-4s-1.794-4-3.999-4c-1.104 0-2.001-.897-2.001-2s.897-2 2.001-2z"/><path fill="#f92596" d="m45 45c-2.206 0-4 1.794-4 4v6c0 2.206 1.794 4 4 4 .74 0 1.424-.215 2.019-.567l.274.274c.922.922 2.362-.467 1.414-1.414l-.274-.274c.352-.595.567-1.279.567-2.019v-6c0-2.206-1.794-4-4-4zm.707 9.293c-.936-.936-2.349.479-1.414 1.414l1.218 1.218c-.164.044-.333.075-.511.075-1.103 0-2-.897-2-2v-6c0-1.103.897-2 2-2s2 .897 2 2v6c0 .178-.031.347-.075.511z"/><path fill="#f92596" d="m58 57h-5v-11c0-1.322-2-1.324-2 0v12c0 .552.448 1 1 1h6c1.322 0 1.324-2 0-2z"/></g></svg>